<svg width="16" height="16" viewBox="0 0 16 16" fill="none" xmlns="http://www.w3.org/2000/svg">
<path d="M7.64486 11.2292L3.49019 15.4214C3.49001 15.4216 3.48983 15.4218 3.48965 15.422C3.38486 15.5262 3.21437 15.526 3.10982 15.4214L3.10981 15.4214L0.578563 12.8902C0.578559 12.8902 0.578556 12.8902 0.578553 12.8902C0.47401 12.7856 0.473816 12.6152 0.57797 12.5104C0.578167 12.5102 0.578365 12.51 0.578563 12.5098L4.77071 8.35513L5.12905 7.99999L4.77071 7.64485L0.578549 3.49018C0.578352 3.48998 0.578155 3.48979 0.577958 3.48959C0.473822 3.38481 0.474009 3.21434 0.578553 3.10979C0.578554 3.10979 0.578555 3.10979 0.578556 3.10979L3.10981 0.578554L3.10981 0.578548C3.21434 0.474016 3.38482 0.473812 3.48961 0.577969C3.48981 0.578164 3.49 0.578359 3.4902 0.578555L7.64486 4.7707L8 5.12904L8.35513 4.7707L12.5099 0.578495C12.5101 0.578324 12.5102 0.578152 12.5104 0.577981C12.6151 0.473874 12.7856 0.473949 12.8902 0.578554C12.8902 0.578556 12.8902 0.578559 12.8902 0.578562L15.4214 3.10979L15.4214 3.1098C15.526 3.21433 15.5262 3.38476 15.4221 3.48954C15.4219 3.48975 15.4217 3.48996 15.4214 3.49017L11.2293 7.64485L10.871 7.99999L11.2293 8.35512L15.4214 12.5098C15.4216 12.51 15.4218 12.5102 15.4221 12.5104C15.5262 12.6152 15.526 12.7856 15.4214 12.8902L12.8902 15.4214L13.2437 15.775L12.8902 15.4214C12.7856 15.526 12.6151 15.5261 12.5104 15.422C12.5103 15.4219 12.5101 15.4217 12.5099 15.4215L8.35514 11.2292L8 10.8709L7.64486 11.2292Z" stroke="white" stroke-opacity="0.4"/>
</svg>
