<svg width="16" height="16" viewBox="0 0 16 16" fill="none" xmlns="http://www.w3.org/2000/svg">
<path fill-rule="evenodd" clip-rule="evenodd" d="M6.02193 0.0155035C5.57658 0.0670036 5.05262 0.300985 4.69667 0.607247C4.35621 0.900231 4.04297 1.41028 3.92606 1.86195C3.7874 2.39759 3.90143 3.0591 4.25349 3.76159L4.33985 3.93394L4.22272 3.85301C3.85685 3.60022 3.50093 3.491 3.04291 3.491C2.49234 3.491 2.0349 3.63477 1.60485 3.94298C1.41898 4.07618 1.12476 4.37672 1.00195 4.55879C0.438931 5.39363 0.439392 6.47349 1.00315 7.36118L1.10301 7.51841L1.01416 7.59004C0.577803 7.94191 0.207856 8.50543 0.065395 9.03527C-0.0212885 9.35766 -0.0218864 9.93048 0.0641447 10.2536C0.241453 10.9198 0.687184 11.4964 1.26918 11.8126C2.02726 12.2245 2.6712 12.2074 3.66291 11.7491L3.87256 11.6523L3.76528 11.8288C3.52811 12.2191 3.45456 12.4898 3.45682 12.9642C3.45874 13.378 3.51939 13.6469 3.69371 14.015C4.04047 14.7472 4.67821 15.2336 5.49536 15.389C5.78968 15.445 6.14824 15.4295 6.48283 15.3465C6.72937 15.2854 7.13772 15.1032 7.33553 14.9661L7.45703 14.8819L7.53347 14.9828C7.84293 15.3915 8.39734 15.7685 8.91681 15.9235C9.1623 15.9967 9.66978 16.0231 9.95172 15.9773C11.117 15.788 12.0102 14.7632 12.0053 13.6213C12.0036 13.231 11.8741 12.7635 11.6325 12.2763L11.5427 12.095L11.7565 12.2244C11.8742 12.2957 12.0784 12.3896 12.2105 12.4332C12.4309 12.506 12.4826 12.5124 12.8446 12.5119C13.1419 12.5116 13.2849 12.499 13.4267 12.4606C14.2907 12.2269 14.9279 11.6198 15.1972 10.7738C15.2598 10.577 15.2731 10.48 15.2832 10.1441C15.2939 9.78611 15.2884 9.72103 15.227 9.48138C15.1535 9.19481 14.9948 8.82768 14.8576 8.62686L14.7721 8.50171L15.0327 8.25081C15.8007 7.51124 16.0656 6.54719 15.7611 5.59993C15.4913 4.76063 14.7869 4.1239 13.9265 3.94161C13.4478 3.84017 12.9086 3.93832 12.2513 4.2465L11.9977 4.36538L12.0553 4.27728C12.3512 3.82437 12.4736 3.32407 12.4125 2.81753C12.3716 2.47907 12.3174 2.28301 12.1905 2.01451C11.7763 1.13854 10.9236 0.587536 9.98485 0.589288C9.47821 0.590246 8.99012 0.74951 8.47755 1.08113C8.42354 1.11609 8.41289 1.11163 8.34382 1.02508C8.19274 0.835809 7.90513 0.578691 7.66897 0.421781C7.17621 0.0944097 6.58995 -0.0502063 6.02193 0.0155035ZM6.79602 1.35092C7.20062 1.54208 7.48413 1.85163 7.61229 2.24222C7.70572 2.52701 7.73934 2.58952 7.85299 2.69006C7.97874 2.80124 8.11448 2.8425 8.30824 2.82838C8.50865 2.81378 8.6529 2.7187 8.79833 2.50536C8.9275 2.31589 9.1315 2.12377 9.31702 2.01691C9.49027 1.91714 9.82165 1.82077 9.98996 1.82121C10.4239 1.82236 10.8666 2.11091 11.0698 2.52507C11.1599 2.70867 11.1719 2.75829 11.1819 2.98871C11.1952 3.29642 11.1612 3.40764 10.9759 3.66226C10.702 4.03856 10.2211 4.48399 9.50123 5.02801C8.774 5.57762 7.59949 6.35519 7.53447 6.33005C7.51482 6.32247 7.35765 6.13949 7.18521 5.9235C6.03397 4.48136 5.30995 3.3189 5.13329 2.62897C4.99062 2.07187 5.35619 1.49148 5.98116 1.28285C6.04895 1.26021 6.18709 1.24934 6.34811 1.25394C6.57443 1.2604 6.6298 1.2724 6.79602 1.35092ZM6.16072 2.54818C6.05196 2.64036 6.01318 2.78019 6.05911 2.91448C6.07817 2.9702 6.22781 3.17505 6.39163 3.36974C6.55546 3.56444 6.90725 3.98574 7.17339 4.30597C7.43953 4.62622 7.69237 4.9065 7.73527 4.92884C7.85329 4.99034 7.98447 4.97914 8.10434 4.89733C8.16251 4.85766 8.62676 4.5195 9.13604 4.14589C9.71714 3.71957 10.074 3.44002 10.0942 3.39534C10.1119 3.35619 10.1264 3.27641 10.1264 3.21804C10.1264 3.02701 9.92736 2.86369 9.73815 2.89945C9.68009 2.9104 9.34898 3.13584 8.80869 3.53229C8.34711 3.871 7.96197 4.1481 7.95283 4.1481C7.94367 4.1481 7.63823 3.79023 7.27401 3.3528C6.9098 2.91539 6.58647 2.53961 6.55546 2.51773C6.46084 2.45098 6.25684 2.46673 6.16072 2.54818ZM3.28133 4.75132C3.46492 4.80268 3.72176 5.00216 4.1056 5.3915C4.51971 5.81155 4.85644 6.23012 5.34515 6.93223C5.76022 7.52857 6.30068 8.38579 6.28141 8.41719C6.27301 8.43088 6.09192 8.58316 5.87901 8.75557C4.35078 9.99307 3.19804 10.7047 2.47777 10.8553C2.12813 10.9285 1.64799 10.6808 1.41335 10.3065C1.23485 10.0216 1.1776 9.61078 1.27233 9.29408C1.33181 9.09518 1.50471 8.82897 1.69238 8.64736C1.8444 8.5002 2.17516 8.31025 2.28125 8.30912C2.45676 8.30729 2.70173 8.10446 2.77251 7.90235C2.88654 7.57684 2.77194 7.33445 2.37394 7.05943C2.13906 6.8971 1.91203 6.53701 1.83573 6.20572C1.66544 5.4663 2.25126 4.73278 3.01831 4.72501C3.10802 4.72411 3.22637 4.73596 3.28133 4.75132ZM13.9542 5.2572C14.3178 5.43027 14.5733 5.77604 14.6377 6.18201C14.6972 6.55708 14.5608 6.95268 14.2606 7.27594C14.0499 7.50283 13.8793 7.61375 13.6147 7.69599C13.3332 7.78344 13.2201 7.86421 13.1334 8.03947C12.9771 8.35528 13.0758 8.65238 13.4137 8.88348C14.0404 9.31218 14.2493 10.1355 13.8789 10.7169C13.5777 11.1897 12.9078 11.4251 12.4824 11.2077C11.9874 10.9546 11.297 10.1941 10.4605 8.98051C10.1705 8.55975 9.58245 7.63833 9.58356 7.60646C9.58451 7.57955 10.425 6.90279 10.8611 6.57778C11.9594 5.75936 12.8585 5.25178 13.3883 5.15119C13.5382 5.12272 13.7583 5.16395 13.9542 5.2572ZM3.01377 5.74105C2.878 5.77702 2.78727 5.90642 2.78727 6.06406C2.78727 6.20665 2.76128 6.16706 3.76003 7.54681C3.89776 7.73706 4.01046 7.90476 4.01046 7.91944C4.01046 7.93411 3.6519 8.24897 3.21367 8.61914C2.77544 8.98927 2.40237 9.32426 2.38462 9.36349C2.31308 9.52166 2.37551 9.72481 2.52061 9.80591C2.61363 9.8579 2.78887 9.85043 2.8824 9.79049C2.92725 9.76175 3.3676 9.39528 3.86096 8.97608C4.807 8.17223 4.87678 8.09732 4.83932 7.92557C4.82176 7.84505 3.50963 5.99302 3.35953 5.83687C3.27298 5.74685 3.1356 5.70877 3.01377 5.74105ZM13.0304 6.20961C12.9403 6.2506 11.1956 7.72444 11.096 7.84373C11.0182 7.93682 10.9978 8.10079 11.0514 8.20166C11.1351 8.35914 12.5026 10.2163 12.5658 10.2582C12.7949 10.4104 13.1283 10.1845 13.0775 9.91151C13.0676 9.85829 12.8288 9.50277 12.4608 8.99335C12.1305 8.53615 11.8546 8.14728 11.8477 8.12921C11.8409 8.11117 12.1877 7.79902 12.6185 7.43559C13.0494 7.07216 13.4232 6.74129 13.4493 6.70035C13.6238 6.4264 13.3245 6.07578 13.0304 6.20961ZM8.72961 10.1381C10.0501 11.8082 10.7788 13.0529 10.7788 13.6383C10.7788 13.8974 10.6309 14.2133 10.4094 14.427C9.88751 14.9308 9.1228 14.8728 8.5734 14.2879C8.39992 14.1032 8.30951 13.9396 8.22759 13.6623C8.13482 13.3483 7.91986 13.174 7.62567 13.1742C7.38198 13.1744 7.26488 13.251 7.03878 13.558C6.80178 13.8798 6.49759 14.0742 6.10076 14.1576C5.58014 14.2669 5.02897 13.9727 4.78835 13.457C4.7179 13.306 4.70368 13.2389 4.6946 13.0144C4.68501 12.7777 4.69093 12.7345 4.75095 12.6038C4.95131 12.1673 5.65619 11.4918 6.68789 10.7476C7.10035 10.45 8.29149 9.65806 8.3324 9.65417C8.33988 9.65346 8.51863 9.87121 8.72961 10.1381ZM7.86927 11.0732C7.74831 11.1107 5.80618 12.5529 5.76278 12.6374C5.6799 12.7989 5.73736 13.0099 5.88512 13.0869C5.97999 13.1363 6.13827 13.1409 6.22038 13.0967C6.25281 13.0792 6.63831 12.8016 7.07703 12.4799C7.51574 12.1582 7.88382 11.8922 7.89499 11.8888C7.90619 11.8854 8.2035 12.2277 8.55573 12.6493C8.90795 13.0709 9.22731 13.4451 9.26545 13.4807C9.50096 13.7008 9.89955 13.4446 9.8042 13.1344C9.78343 13.0668 9.50944 12.717 8.98915 12.0938C8.55807 11.5774 8.18198 11.1385 8.15335 11.1184C8.08167 11.0682 7.95191 11.0476 7.86927 11.0732Z" fill="#737373"/>
</svg>
