<svg width="256" height="45" viewBox="0 0 256 45" fill="none" xmlns="http://www.w3.org/2000/svg">
<path fill-rule="evenodd" clip-rule="evenodd" d="M16.7968 0.0436036C15.5546 0.188447 14.0931 0.846519 13.1003 1.70788C12.1506 2.5319 11.2769 3.9664 10.9508 5.23673C10.5641 6.74323 10.8821 8.60372 11.8641 10.5795L12.105 11.0642L11.7783 10.8366C10.7578 10.1256 9.76503 9.81845 8.4875 9.81845C6.9518 9.81845 5.67587 10.2228 4.47635 11.0896C3.95791 11.4643 3.13726 12.3095 2.79471 12.8216C1.22429 15.1696 1.22558 18.2067 2.79805 20.7033L3.0766 21.1455L2.82875 21.347C1.61165 22.3366 0.579766 23.9215 0.182404 25.4117C-0.0593793 26.3184 -0.0610471 27.9295 0.178917 28.8384C0.673477 30.7119 1.91674 32.3336 3.54008 33.2229C5.65456 34.3813 7.45069 34.3333 10.2168 33.0445L10.8016 32.772L10.5024 33.2685C9.84085 34.3662 9.63568 35.1276 9.64198 36.4617C9.64736 37.6256 9.81651 38.382 10.3027 39.4172C11.2699 41.4766 13.0488 42.8446 15.328 43.2815C16.149 43.4389 17.1491 43.3956 18.0823 43.1621C18.77 42.9902 19.909 42.4777 20.4607 42.0922L20.7996 41.8554L21.0128 42.1392C21.876 43.2886 23.4224 44.3489 24.8714 44.7848C25.5561 44.9908 26.9716 45.065 27.758 44.9362C31.0081 44.4036 33.4995 41.5215 33.4859 38.3098C33.4812 37.2121 33.1199 35.8974 32.4463 34.5272L32.1955 34.0171L32.7921 34.3812C33.1202 34.5815 33.69 34.8457 34.0582 34.9683C34.6732 35.173 34.8172 35.1911 35.8271 35.1899C36.6563 35.1888 37.0552 35.1534 37.4508 35.0455C39.8606 34.388 41.638 32.6807 42.389 30.3014C42.5638 29.7477 42.6008 29.4749 42.6288 28.5303C42.6588 27.5234 42.6434 27.3404 42.472 26.6664C42.2671 25.8604 41.8245 24.8279 41.4419 24.263L41.2034 23.911L41.9302 23.2054C44.0724 21.1254 44.8112 18.414 43.9619 15.7498C43.2093 13.3893 41.2445 11.5985 38.8446 11.0858C37.5094 10.8005 36.0054 11.0765 34.1721 11.9433L33.4649 12.2776L33.6254 12.0298C34.4508 10.7561 34.7923 9.34896 34.6217 7.92431C34.5077 6.97239 34.3566 6.42097 34.0025 5.6658C32.8473 3.20214 30.4688 1.65244 27.8504 1.65737C26.4372 1.66007 25.0758 2.108 23.6461 3.04067C23.4955 3.139 23.4658 3.12645 23.2731 2.88304C22.8517 2.35071 22.0495 1.62757 21.3908 1.18626C20.0164 0.265527 18.3811 -0.141205 16.7968 0.0436036ZM18.9559 3.79946C20.0844 4.3371 20.8752 5.2077 21.2327 6.30623C21.4933 7.10723 21.5871 7.28303 21.9041 7.56578C22.2548 7.8785 22.6334 7.99454 23.1739 7.95481C23.7329 7.91376 24.1353 7.64633 24.5409 7.04632C24.9012 6.51345 25.4702 5.97312 25.9876 5.67257C26.4709 5.39197 27.3952 5.12092 27.8647 5.12215C29.075 5.12539 30.3098 5.93692 30.8766 7.10176C31.1279 7.61815 31.1614 7.75768 31.1893 8.40574C31.2265 9.27118 31.1316 9.58397 30.6147 10.3001C29.8508 11.3584 28.5093 12.6112 26.5014 14.1413C24.473 15.6871 21.197 17.874 21.0156 17.8033C20.9608 17.7819 20.5224 17.2673 20.0415 16.6598C16.8303 12.6038 14.8109 9.33441 14.3181 7.39399C13.9202 5.82712 14.9398 4.1948 16.683 3.60803C16.8721 3.54435 17.2574 3.51378 17.7066 3.52671C18.3378 3.54489 18.4923 3.57861 18.9559 3.79946ZM17.1839 7.16675C16.8805 7.42603 16.7723 7.81928 16.9005 8.19698C16.9536 8.35369 17.371 8.92983 17.828 9.4774C18.2849 10.025 19.2661 11.2099 20.0085 12.1105C20.7508 13.0113 21.4561 13.7995 21.5757 13.8624C21.9049 14.0353 22.2708 14.0038 22.6052 13.7737C22.7674 13.6622 24.0623 12.7111 25.4828 11.6603C27.1037 10.4613 28.0991 9.67507 28.1554 9.5494C28.2048 9.43928 28.2453 9.2149 28.2453 9.05073C28.2453 8.51347 27.69 8.05414 27.1623 8.15471C27.0003 8.18551 26.0768 8.81956 24.5698 9.93457C23.2823 10.8872 22.208 11.6665 22.1826 11.6665C22.157 11.6665 21.305 10.66 20.2892 9.42974C19.2733 8.19953 18.3714 7.14265 18.2849 7.08113C18.021 6.89339 17.452 6.93767 17.1839 7.16675ZM9.15249 13.3631C9.66457 13.5075 10.381 14.0686 11.4516 15.1636C12.6067 16.345 13.5459 17.5222 14.909 19.4969C16.0668 21.1741 17.5743 23.585 17.5205 23.6733C17.4971 23.7118 16.992 24.1401 16.3981 24.625C12.1355 28.1055 8.92019 30.107 6.91117 30.5306C5.93592 30.7363 4.59667 30.0398 3.94221 28.9869C3.44432 28.1858 3.28464 27.0303 3.54887 26.1396C3.71476 25.5802 4.19704 24.8315 4.72048 24.3207C5.14453 23.9068 6.06709 23.3726 6.363 23.3694C6.85256 23.3642 7.53583 22.7938 7.73326 22.2254C8.05132 21.3099 7.73167 20.6281 6.62154 19.8546C5.9664 19.3981 5.33317 18.3853 5.12035 17.4536C4.64535 15.374 6.27938 13.311 8.41888 13.2891C8.66908 13.2865 8.99919 13.3199 9.15249 13.3631ZM38.9221 14.7859C39.9361 15.2726 40.6488 16.2451 40.8285 17.3869C40.9943 18.4418 40.614 19.5544 39.7766 20.4636C39.1889 21.1017 38.7131 21.4137 37.975 21.645C37.19 21.8909 36.8743 22.1181 36.6325 22.611C36.1967 23.4992 36.4719 24.3348 37.4144 24.9848C39.1624 26.1905 39.7452 28.5061 38.7119 30.1414C37.8719 31.471 36.0033 32.1331 34.8169 31.5216C33.4361 30.8099 31.5102 28.6708 29.1771 25.2577C28.3682 24.0743 26.728 21.4828 26.7311 21.3932C26.7338 21.3175 29.0781 19.4141 30.2946 18.5C33.3578 16.1982 35.8658 14.7706 37.3434 14.4877C37.7617 14.4076 38.3757 14.5236 38.9221 14.7859ZM8.40622 16.1467C8.02751 16.2479 7.77443 16.6118 7.77443 17.0552C7.77443 17.4562 7.70195 17.3449 10.4877 21.2254C10.8719 21.7605 11.1862 22.2321 11.1862 22.2734C11.1862 22.3147 10.1861 23.2002 8.96378 24.2413C7.74145 25.2823 6.70085 26.2245 6.65134 26.3348C6.45179 26.7797 6.62594 27.351 7.03066 27.5791C7.2901 27.7253 7.7789 27.7043 8.03979 27.5358C8.16489 27.4549 9.39314 26.4242 10.7692 25.2452C13.408 22.9844 13.6026 22.7737 13.4981 22.2907C13.4492 22.0642 9.78929 16.8554 9.37062 16.4162C9.12922 16.163 8.74603 16.0559 8.40622 16.1467ZM36.3451 17.4645C36.0939 17.5798 31.2276 21.725 30.9497 22.0605C30.7328 22.3223 30.6758 22.7835 30.8252 23.0672C31.0586 23.5101 34.873 28.7332 35.0493 28.8513C35.6885 29.2794 36.6184 28.644 36.4766 27.8761C36.4489 27.7264 35.7828 26.7265 34.7564 25.2938C33.8352 24.0079 33.0657 22.9142 33.0465 22.8634C33.0273 22.8127 33.9948 21.9347 35.1965 20.9126C36.3981 19.8905 37.4408 18.9599 37.5136 18.8447C38.0004 18.0742 37.1655 17.0881 36.3451 17.4645ZM24.3492 28.5133C28.0324 33.2105 30.0649 36.7111 30.0649 38.3576C30.0649 39.0865 29.6523 39.975 29.0346 40.576C27.5789 41.9927 25.4459 41.8297 23.9135 40.1846C23.4296 39.6652 23.1774 39.2051 22.9489 38.4253C22.6902 37.5421 22.0906 37.0518 21.27 37.0525C20.5903 37.0531 20.2637 37.2684 19.633 38.1319C18.972 39.037 18.1235 39.5838 17.0166 39.8182C15.5645 40.1256 14.0271 39.2982 13.356 37.8478C13.1595 37.4232 13.1198 37.2344 13.0945 36.6031C13.0677 35.9373 13.0843 35.8157 13.2517 35.4481C13.8105 34.2205 15.7766 32.3207 18.6543 30.2276C19.8048 29.3907 23.1272 27.1633 23.2413 27.1524C23.2621 27.1504 23.7607 27.7628 24.3492 28.5133ZM21.9495 31.1433C21.6121 31.2487 16.195 35.305 16.0739 35.5428C15.8427 35.9968 16.003 36.5905 16.4152 36.8069C16.6798 36.9459 17.1213 36.9589 17.3503 36.8343C17.4408 36.7851 18.516 36.0046 19.7397 35.0997C20.9634 34.1948 21.9901 33.4467 22.0212 33.4373C22.0525 33.4278 22.8818 34.3903 23.8642 35.5762C24.8466 36.762 25.7374 37.8143 25.8438 37.9145C26.5007 38.5334 27.6125 37.8128 27.3465 36.9405C27.2886 36.7504 26.5243 35.7666 25.0731 34.0137C23.8707 32.5613 22.8217 31.327 22.7419 31.2706C22.5419 31.1294 22.18 31.0712 21.9495 31.1433Z" fill="white"/>
<path d="M68.9839 40.7189C66.3568 40.7189 63.9082 40.2973 61.6379 39.4541C59.4001 38.5784 57.4541 37.346 55.8001 35.7568C54.146 34.1676 52.8487 32.3027 51.9082 30.1622C51.0001 28.0216 50.546 25.6703 50.546 23.1081C50.546 20.546 51.0001 18.1946 51.9082 16.0541C52.8487 13.9135 54.146 12.0487 55.8001 10.4595C57.4866 8.87028 59.4487 7.65406 61.6866 6.81081C63.9244 5.93514 66.373 5.4973 69.0325 5.4973C71.9839 5.4973 74.6433 6.01622 77.0109 7.05406C79.4109 8.05946 81.4217 9.55136 83.0433 11.5297L77.9839 16.2C76.8163 14.8703 75.519 13.8811 74.092 13.2324C72.6649 12.5514 71.1082 12.2108 69.4217 12.2108C67.8325 12.2108 66.373 12.4703 65.0433 12.9892C63.7136 13.5081 62.5622 14.2541 61.5893 15.227C60.6163 16.2 59.8541 17.3514 59.3028 18.6811C58.7839 20.0108 58.5244 21.4865 58.5244 23.1081C58.5244 24.7297 58.7839 26.2054 59.3028 27.5351C59.8541 28.8649 60.6163 30.0162 61.5893 30.9892C62.5622 31.9622 63.7136 32.7081 65.0433 33.227C66.373 33.746 67.8325 34.0054 69.4217 34.0054C71.1082 34.0054 72.6649 33.6811 74.092 33.0324C75.519 32.3514 76.8163 31.3297 77.9839 29.9676L83.0433 34.6378C81.4217 36.6162 79.4109 38.1243 77.0109 39.1622C74.6433 40.2 71.9676 40.7189 68.9839 40.7189Z" fill="white"/>
<path d="M88.3654 40.1351V6.08109H96.2465V33.7135H113.322V40.1351H88.3654Z" fill="white"/>
<path d="M133.696 40.7189C131.004 40.7189 128.507 40.2811 126.204 39.4054C123.934 38.5297 121.956 37.2973 120.269 35.7081C118.615 34.1189 117.318 32.2541 116.377 30.1135C115.469 27.973 115.015 25.6378 115.015 23.1081C115.015 20.5784 115.469 18.2432 116.377 16.1027C117.318 13.9622 118.631 12.0973 120.318 10.5081C122.004 8.91892 123.983 7.68649 126.253 6.81081C128.523 5.93514 130.988 5.4973 133.647 5.4973C136.339 5.4973 138.804 5.93514 141.042 6.81081C143.312 7.68649 145.274 8.91892 146.928 10.5081C148.615 12.0973 149.928 13.9622 150.869 16.1027C151.81 18.2108 152.28 20.546 152.28 23.1081C152.28 25.6378 151.81 27.9892 150.869 30.1622C149.928 32.3027 148.615 34.1676 146.928 35.7568C145.274 37.3135 143.312 38.5297 141.042 39.4054C138.804 40.2811 136.356 40.7189 133.696 40.7189ZM133.647 34.0054C135.172 34.0054 136.566 33.746 137.831 33.227C139.128 32.7081 140.264 31.9622 141.237 30.9892C142.21 30.0162 142.956 28.8649 143.474 27.5351C144.026 26.2054 144.301 24.7297 144.301 23.1081C144.301 21.4865 144.026 20.0108 143.474 18.6811C142.956 17.3514 142.21 16.2 141.237 15.227C140.296 14.2541 139.177 13.5081 137.88 12.9892C136.583 12.4703 135.172 12.2108 133.647 12.2108C132.123 12.2108 130.712 12.4703 129.415 12.9892C128.15 13.5081 127.031 14.2541 126.058 15.227C125.085 16.2 124.323 17.3514 123.772 18.6811C123.253 20.0108 122.993 21.4865 122.993 23.1081C122.993 24.6973 123.253 26.173 123.772 27.5351C124.323 28.8649 125.069 30.0162 126.01 30.9892C126.983 31.9622 128.118 32.7081 129.415 33.227C130.712 33.746 132.123 34.0054 133.647 34.0054Z" fill="white"/>
<path d="M167.326 40.1351L152.634 6.08109H161.148L173.991 36.2432H168.98L182.018 6.08109H189.851L175.11 40.1351H167.326Z" fill="white"/>
<path d="M199.943 19.8H216.337V25.9297H199.943V19.8ZM200.526 33.8108H219.062V40.1351H192.694V6.08109H218.429V12.4054H200.526V33.8108Z" fill="white"/>
<path d="M225.332 40.1351V6.08109H240.073C243.121 6.08109 245.748 6.58379 247.954 7.58919C250.159 8.56217 251.862 9.97298 253.062 11.8216C254.262 13.6703 254.862 15.8757 254.862 18.4378C254.862 20.9676 254.262 23.1568 253.062 25.0054C251.862 26.8216 250.159 28.2162 247.954 29.1892C245.748 30.1622 243.121 30.6487 240.073 30.6487H229.711L233.213 27.1946V40.1351H225.332ZM246.981 40.1351L238.467 27.7784H246.884L255.494 40.1351H246.981ZM233.213 28.0703L229.711 24.373H239.635C242.067 24.373 243.884 23.8541 245.084 22.8162C246.284 21.746 246.884 20.2865 246.884 18.4378C246.884 16.5568 246.284 15.0973 245.084 14.0595C243.884 13.0216 242.067 12.5027 239.635 12.5027H229.711L233.213 8.75676V28.0703Z" fill="white"/>
</svg>
