<svg width="215" height="41" viewBox="0 0 215 41" fill="none" xmlns="http://www.w3.org/2000/svg">
<g clip-path="url(#clip0_24_21)">
<path d="M215 0H0V41H215V0Z" fill="#2F2F2F"/>
<path d="M45.812 25.082V23.288C45.9853 23.445 46.1779 23.5794 46.385 23.688C46.6113 23.808 46.8475 23.9084 47.091 23.988C47.3347 24.0677 47.5836 24.1302 47.836 24.175C48.0627 24.2167 48.2925 24.2384 48.523 24.24C49.0916 24.28 49.6595 24.1531 50.157 23.875C50.3311 23.76 50.4722 23.6015 50.5664 23.4153C50.6606 23.229 50.7046 23.0214 50.694 22.813C50.6997 22.5839 50.6378 22.3582 50.516 22.164C50.3814 21.9681 50.2119 21.7986 50.016 21.664C49.7758 21.4989 49.5226 21.3534 49.259 21.229C48.969 21.0897 48.6583 20.9443 48.327 20.793C47.9717 20.603 47.6403 20.4103 47.333 20.215C47.0413 20.0319 46.7727 19.8144 46.533 19.567C46.3093 19.334 46.1288 19.0632 46 18.767C45.8638 18.4351 45.7977 18.0787 45.806 17.72C45.7948 17.269 45.9102 16.8238 46.139 16.435C46.3592 16.0723 46.6591 15.7645 47.016 15.535C47.3964 15.2906 47.8152 15.1121 48.255 15.007C48.719 14.8925 49.1951 14.8348 49.673 14.835C50.4906 14.7855 51.3092 14.9131 52.073 15.209V16.93C51.3965 16.4755 50.5922 16.2495 49.778 16.285C49.5192 16.2852 49.2611 16.31 49.007 16.359C48.7668 16.4029 48.535 16.4842 48.32 16.6C48.1254 16.7061 47.9567 16.8539 47.826 17.033C47.6964 17.2196 47.6301 17.4429 47.637 17.67C47.6318 17.8818 47.6817 18.0914 47.782 18.278C47.8914 18.4614 48.037 18.6207 48.21 18.746C48.426 18.9051 48.6563 19.0437 48.898 19.16C49.168 19.294 49.482 19.44 49.837 19.596C50.2023 19.786 50.547 19.986 50.871 20.196C51.1819 20.3962 51.4691 20.631 51.727 20.896C51.9681 21.1432 52.1659 21.4292 52.312 21.742C52.4601 22.0747 52.5335 22.4359 52.527 22.8C52.5424 23.2701 52.4312 23.7356 52.205 24.148C51.9932 24.5114 51.696 24.8176 51.339 25.04C50.9543 25.2805 50.5296 25.4498 50.085 25.54C49.5921 25.6459 49.0891 25.6978 48.585 25.695C48.409 25.695 48.193 25.681 47.938 25.655C47.683 25.629 47.42 25.588 47.152 25.538C46.8957 25.4885 46.642 25.4261 46.392 25.351C46.1874 25.2879 45.9923 25.1974 45.812 25.082Z" fill="white"/>
<path d="M55.109 16.426C54.8451 16.4309 54.5896 16.3334 54.396 16.154C54.299 16.068 54.2218 15.962 54.17 15.8431C54.1182 15.7243 54.0929 15.5956 54.096 15.466C54.0929 15.3346 54.1181 15.2042 54.1699 15.0834C54.2217 14.9626 54.2988 14.8544 54.396 14.766C54.5879 14.5833 54.844 14.4834 55.109 14.488C55.3799 14.4819 55.6425 14.5816 55.841 14.766C55.9383 14.8543 56.0155 14.9625 56.0673 15.0833C56.1191 15.2041 56.1442 15.3346 56.141 15.466C56.142 15.5938 56.1158 15.7204 56.0641 15.8373C56.0123 15.9542 55.9363 16.0588 55.841 16.144C55.6435 16.3304 55.3805 16.4317 55.109 16.426ZM55.95 25.5H54.25V18H55.95V25.5Z" fill="white"/>
<path d="M64.979 24.9C64.979 27.654 63.597 29.031 60.833 29.031C59.9574 29.0504 59.0878 28.883 58.282 28.54V26.986C58.9846 27.4196 59.7888 27.661 60.614 27.686C60.9733 27.74 61.3402 27.7097 61.6858 27.5973C62.0313 27.485 62.346 27.2938 62.6048 27.0388C62.8637 26.7838 63.0596 26.4721 63.1771 26.1283C63.2947 25.7845 63.3306 25.4181 63.282 25.058V24.24H63.253C63.016 24.6384 62.6881 24.975 62.2961 25.2224C61.9041 25.4698 61.4591 25.621 60.9975 25.6635C60.536 25.706 60.0709 25.6387 59.6403 25.4671C59.2097 25.2955 58.8258 25.0244 58.52 24.676C57.9291 23.9102 57.6322 22.958 57.683 21.992C57.625 20.9054 57.9428 19.8319 58.583 18.952C58.8765 18.5821 59.2534 18.2871 59.6829 18.091C60.1124 17.8949 60.5823 17.8034 61.054 17.824C61.4977 17.8012 61.9388 17.903 62.3276 18.1179C62.7164 18.3328 63.0373 18.6522 63.254 19.04H63.283V18H64.983L64.979 24.9ZM63.3 22.064V21.091C63.3101 20.5891 63.1222 20.1034 62.777 19.739C62.6128 19.5584 62.4118 19.4151 62.1875 19.3187C61.9633 19.2223 61.721 19.175 61.477 19.18C61.1862 19.1672 60.8967 19.2255 60.6336 19.35C60.3704 19.4744 60.1416 19.6611 59.967 19.894C59.5701 20.4825 59.3785 21.1855 59.422 21.894C59.3899 22.526 59.5744 23.1501 59.945 23.663C60.1064 23.8758 60.3163 24.0469 60.5572 24.162C60.7981 24.2772 61.0631 24.3331 61.33 24.325C61.5999 24.3334 61.8682 24.2809 62.115 24.1715C62.3619 24.0621 62.5809 23.8986 62.756 23.693C63.1321 23.2357 63.3258 22.6555 63.3 22.064Z" fill="white"/>
<path d="M73.853 25.5H72.153V21.273C72.153 19.873 71.6587 19.173 70.67 19.173C70.4267 19.1675 70.1854 19.2169 69.9639 19.3177C69.7425 19.4185 69.5466 19.568 69.391 19.755C69.0469 20.1654 68.867 20.6888 68.886 21.224V25.5H67.186V18H68.886V19.245H68.915C69.1473 18.8056 69.4976 18.4397 69.9266 18.1886C70.3556 17.9376 70.8461 17.8113 71.343 17.824C71.694 17.8022 72.0452 17.8628 72.3687 18.0008C72.6921 18.1388 72.9789 18.3505 73.206 18.619C73.6784 19.289 73.9058 20.1011 73.85 20.919L73.853 25.5Z" fill="white"/>
<path d="M80.892 16.426C80.628 16.4313 80.3724 16.3338 80.179 16.154C80.0819 16.0681 80.0047 15.9621 79.9528 15.8432C79.901 15.7244 79.8758 15.5956 79.879 15.466C79.8758 15.3346 79.9009 15.2041 79.9527 15.0833C80.0045 14.9625 80.0817 14.8543 80.179 14.766C80.3704 14.5825 80.6269 14.4825 80.892 14.488C81.1626 14.4818 81.4249 14.5816 81.623 14.766C81.7203 14.8543 81.7975 14.9625 81.8493 15.0833C81.9011 15.2041 81.9262 15.3346 81.923 15.466C81.924 15.5938 81.8978 15.7204 81.8461 15.8373C81.7943 15.9542 81.7183 16.0588 81.623 16.144C81.4258 16.3303 81.1632 16.4316 80.892 16.426ZM81.732 25.5H80.032V18H81.732V25.5Z" fill="white"/>
<path d="M90.614 25.5H88.914V21.273C88.914 19.873 88.4197 19.173 87.431 19.173C87.1876 19.1676 86.9462 19.2171 86.7246 19.3179C86.503 19.4187 86.3069 19.5681 86.151 19.755C85.8087 20.1662 85.6306 20.6894 85.651 21.224V25.5H83.951V18H85.651V19.245H85.681C85.9131 18.8056 86.2633 18.4398 86.6921 18.1888C87.1209 17.9377 87.6113 17.8114 88.108 17.824C88.4592 17.8021 88.8106 17.8626 89.1342 18.0007C89.4578 18.1387 89.7447 18.3504 89.972 18.619C90.4436 19.2893 90.6706 20.1013 90.615 20.919L90.614 25.5Z" fill="white"/>
<path d="M106.865 18L104.657 25.5H102.881L101.521 20.417C101.465 20.2013 101.432 19.9805 101.421 19.758H101.392C101.372 19.9768 101.327 20.1928 101.26 20.402L99.783 25.502H98.042L95.842 18.002H97.6L98.96 23.407C99.0101 23.6186 99.0393 23.8347 99.047 24.052H99.1C99.1171 23.829 99.1563 23.6083 99.217 23.393L100.725 18H102.318L103.663 23.428C103.713 23.6396 103.745 23.855 103.758 24.072H103.81C103.825 23.8543 103.861 23.6385 103.919 23.428L105.249 18H106.865Z" fill="white"/>
<path d="M108.977 16.426C108.713 16.4313 108.457 16.3338 108.264 16.154C108.167 16.0681 108.09 15.9621 108.038 15.8432C107.986 15.7244 107.961 15.5956 107.964 15.466C107.961 15.3346 107.986 15.2041 108.038 15.0833C108.089 14.9625 108.167 14.8543 108.264 14.766C108.455 14.5825 108.712 14.4825 108.977 14.488C109.248 14.4818 109.51 14.5816 109.708 14.766C109.805 14.8543 109.883 14.9625 109.934 15.0833C109.986 15.2041 110.011 15.3346 110.008 15.466C110.009 15.5938 109.983 15.7204 109.931 15.8373C109.879 15.9542 109.803 16.0588 109.708 16.144C109.511 16.3303 109.248 16.4316 108.977 16.426ZM109.817 25.5H108.117V18H109.817V25.5Z" fill="white"/>
<path d="M115.979 25.42C115.568 25.6013 115.121 25.6861 114.672 25.668C113.219 25.668 112.492 24.97 112.493 23.574V19.333H111.243V18H112.493V16.264L114.193 15.781V18H115.983V19.333H114.193V23.083C114.163 23.4186 114.248 23.7545 114.435 24.035C114.539 24.1383 114.665 24.2174 114.803 24.2666C114.942 24.3159 115.089 24.3341 115.235 24.32C115.505 24.3265 115.768 24.2388 115.98 24.072L115.979 25.42Z" fill="white"/>
<path d="M124.094 25.5H122.394V21.4C122.394 19.916 121.9 19.174 120.911 19.174C120.665 19.1743 120.423 19.2329 120.205 19.3448C119.986 19.4568 119.797 19.6189 119.653 19.818C119.298 20.2924 119.117 20.8749 119.142 21.467V25.5H117.442V14.4H119.142V19.249H119.171C119.404 18.8103 119.755 18.4451 120.183 18.1941C120.612 17.9432 121.102 17.8164 121.599 17.828C123.26 17.828 124.091 18.8463 124.091 20.883L124.094 25.5Z" fill="white"/>
<path d="M141.719 25.5H139.993V18.7C139.993 18.1433 140.026 17.4623 140.093 16.657H140.063C139.992 16.9929 139.897 17.3231 139.778 17.645L136.652 25.5H135.452L132.316 17.707C132.198 17.3653 132.106 17.0153 132.039 16.66H132.01C132.049 17.08 132.069 17.766 132.068 18.718V25.5H130.46V15H132.909L135.665 22C135.826 22.3913 135.962 22.7921 136.074 23.2H136.11C136.291 22.649 136.437 22.238 136.549 21.97L139.357 15H141.719V25.5Z" fill="white"/>
<path d="M144.964 16.426C144.7 16.4311 144.444 16.3336 144.251 16.154C144.154 16.068 144.077 15.9619 144.025 15.8431C143.973 15.7243 143.948 15.5956 143.951 15.466C143.948 15.3347 143.973 15.2042 144.025 15.0834C144.077 14.9627 144.154 14.8544 144.251 14.766C144.443 14.5831 144.699 14.4832 144.964 14.488C145.235 14.4818 145.497 14.5816 145.695 14.766C145.793 14.8541 145.87 14.9623 145.922 15.0832C145.973 15.204 145.998 15.3346 145.995 15.466C145.996 15.5938 145.97 15.7204 145.918 15.8373C145.866 15.9542 145.79 16.0588 145.695 16.144C145.498 16.3303 145.235 16.4316 144.964 16.426ZM145.805 25.5H144.105V18H145.805V25.5Z" fill="white"/>
<path d="M153.378 25.156C152.728 25.515 151.994 25.6945 151.251 25.676C150.755 25.6969 150.26 25.615 149.797 25.4353C149.334 25.2556 148.913 24.9821 148.561 24.632C148.217 24.2729 147.949 23.8482 147.774 23.3833C147.598 22.9183 147.517 22.4227 147.537 21.926C147.512 21.3813 147.596 20.837 147.785 20.3255C147.974 19.8139 148.264 19.3455 148.637 18.948C149.023 18.5679 149.484 18.2719 149.99 18.0784C150.497 17.885 151.038 17.7984 151.579 17.824C152.2 17.8116 152.816 17.9344 153.385 18.184V19.766C152.91 19.3913 152.323 19.1851 151.718 19.18C151.389 19.1691 151.062 19.2284 150.758 19.3539C150.455 19.4795 150.181 19.6684 149.956 19.908C149.485 20.4289 149.238 21.1144 149.269 21.816C149.251 22.1499 149.298 22.4841 149.409 22.7995C149.52 23.1149 149.692 23.4053 149.916 23.654C150.142 23.8816 150.413 24.0593 150.712 24.1754C151.011 24.2915 151.332 24.3435 151.652 24.328C152.286 24.3192 152.896 24.0885 153.377 23.676L153.378 25.156Z" fill="white"/>
<path d="M159.4 19.619C159.141 19.4414 158.829 19.3562 158.516 19.377C158.266 19.3781 158.021 19.441 157.801 19.56C157.582 19.679 157.395 19.8504 157.258 20.059C156.896 20.6064 156.721 21.2559 156.758 21.911V25.5H155.058V18H156.758V19.545H156.787C156.92 19.0698 157.185 18.6422 157.551 18.312C157.867 18.0268 158.277 17.8686 158.702 17.868C158.943 17.8545 159.184 17.9027 159.402 18.008L159.4 19.619Z" fill="white"/>
<path d="M163.788 25.676C163.279 25.7001 162.771 25.6192 162.295 25.4384C161.819 25.2576 161.385 24.9807 161.021 24.625C160.67 24.2539 160.397 23.8158 160.22 23.3369C160.042 22.8581 159.962 22.3483 159.986 21.838C159.939 21.3014 160.009 20.761 160.192 20.2544C160.375 19.7478 160.666 19.2873 161.046 18.9051C161.425 18.5228 161.884 18.228 162.389 18.0413C162.894 17.8546 163.434 17.7804 163.971 17.824C164.474 17.7944 164.977 17.8711 165.448 18.0491C165.919 18.2271 166.347 18.5024 166.704 18.857C167.394 19.6461 167.746 20.6747 167.684 21.721C167.709 22.2464 167.628 22.7716 167.447 23.2654C167.266 23.7592 166.987 24.2116 166.628 24.596C166.254 24.9617 165.809 25.2464 165.321 25.4322C164.832 25.618 164.31 25.701 163.788 25.676ZM163.868 19.176C163.57 19.1634 163.273 19.2201 163 19.3415C162.728 19.463 162.487 19.6459 162.297 19.876C161.883 20.4272 161.679 21.1071 161.719 21.795C161.681 22.4644 161.889 23.1246 162.304 23.651C162.497 23.8746 162.737 24.0518 163.008 24.1692C163.279 24.2866 163.573 24.3413 163.868 24.329C164.159 24.3461 164.449 24.2947 164.717 24.1791C164.984 24.0634 165.22 23.8866 165.407 23.663C165.799 23.1101 165.989 22.4392 165.944 21.763C165.988 21.0834 165.798 20.4093 165.407 19.852C165.222 19.6266 164.986 19.4482 164.718 19.3314C164.451 19.2146 164.159 19.1627 163.868 19.18V19.176Z" fill="white"/>
<path d="M168.94 25.266V23.691C169.538 24.1622 170.278 24.4176 171.04 24.416C172.063 24.416 172.575 24.1133 172.575 23.508C172.58 23.3521 172.533 23.199 172.443 23.072C172.346 22.9445 172.226 22.8366 172.089 22.754C171.923 22.653 171.746 22.5692 171.563 22.504C171.363 22.432 171.135 22.349 170.886 22.256C170.602 22.1444 170.325 22.0144 170.057 21.867C169.829 21.7444 169.622 21.5876 169.442 21.402C169.281 21.2319 169.155 21.0313 169.073 20.812C168.986 20.5652 168.944 20.3047 168.949 20.043C168.942 19.7068 169.031 19.3757 169.205 19.088C169.379 18.8064 169.614 18.5673 169.892 18.388C170.193 18.1941 170.524 18.0505 170.871 17.963C171.24 17.869 171.619 17.8223 172 17.824C172.633 17.8144 173.262 17.9211 173.856 18.139V19.626C173.322 19.2626 172.689 19.0733 172.044 19.084C171.848 19.0813 171.652 19.1035 171.462 19.15C171.306 19.1866 171.156 19.2484 171.02 19.333C170.905 19.4042 170.807 19.5006 170.735 19.615C170.668 19.7241 170.633 19.85 170.635 19.978C170.63 20.1213 170.665 20.2631 170.735 20.388C170.811 20.5096 170.913 20.6123 171.035 20.688C171.187 20.7819 171.349 20.8603 171.517 20.922C171.705 20.992 171.921 21.0687 172.165 21.152C172.46 21.2707 172.749 21.4042 173.031 21.552C173.27 21.6756 173.49 21.8322 173.685 22.017C173.863 22.1863 174.005 22.3905 174.101 22.617C174.205 22.8742 174.255 23.1498 174.248 23.427C174.257 23.7785 174.166 24.1253 173.985 24.427C173.808 24.7102 173.568 24.9495 173.285 25.127C172.973 25.3204 172.63 25.46 172.272 25.54C171.876 25.6325 171.47 25.6781 171.063 25.676C170.334 25.6926 169.61 25.5528 168.94 25.266Z" fill="white"/>
<path d="M179.183 25.676C178.674 25.7002 178.166 25.6193 177.69 25.4385C177.213 25.2577 176.78 24.9808 176.415 24.625C176.064 24.2538 175.792 23.8157 175.614 23.3368C175.437 22.858 175.357 22.3482 175.381 21.838C175.334 21.3015 175.404 20.7612 175.587 20.2547C175.77 19.7482 176.061 19.2877 176.441 18.9055C176.82 18.5232 177.278 18.2284 177.783 18.0416C178.288 17.8548 178.828 17.7806 179.365 17.824C179.868 17.7945 180.371 17.8713 180.842 18.0492C181.313 18.2272 181.741 18.5025 182.099 18.857C182.789 19.6462 183.14 20.6749 183.078 21.721C183.103 22.2465 183.023 22.7717 182.841 23.2655C182.66 23.7593 182.381 24.2117 182.022 24.596C181.649 24.9619 181.204 25.2467 180.715 25.4325C180.227 25.6184 179.705 25.7013 179.183 25.676ZM179.263 19.176C178.965 19.1634 178.668 19.2201 178.395 19.3415C178.122 19.463 177.881 19.6459 177.691 19.876C177.278 20.4274 177.073 21.1072 177.113 21.795C177.075 22.4643 177.283 23.1244 177.698 23.651C177.891 23.8747 178.132 24.0518 178.403 24.1693C178.674 24.2867 178.968 24.3413 179.263 24.329C179.554 24.3459 179.844 24.2945 180.112 24.1788C180.379 24.0632 180.615 23.8865 180.802 23.663C181.193 23.1099 181.383 22.4392 181.339 21.763C181.382 21.0835 181.193 20.4096 180.802 19.852C180.617 19.6267 180.38 19.4483 180.113 19.3315C179.846 19.2148 179.554 19.1628 179.263 19.18V19.176Z" fill="white"/>
<path d="M188.787 15.781C188.549 15.6452 188.279 15.5761 188.005 15.581C187.182 15.581 186.77 16.0477 186.77 16.981V18H188.51V19.333H186.777V25.5H185.077V19.333H183.8V18H185.079V16.784C185.062 16.4343 185.123 16.0851 185.257 15.7616C185.391 15.438 185.595 15.1482 185.854 14.913C186.391 14.4493 187.082 14.2051 187.791 14.229C188.128 14.2162 188.464 14.2629 188.785 14.367L188.787 15.781Z" fill="white"/>
<path d="M193.94 25.42C193.529 25.6013 193.082 25.6861 192.633 25.668C191.18 25.668 190.454 24.97 190.454 23.574V19.333H189.2V18H190.45V16.264L192.15 15.781V18H193.94V19.333H192.15V23.083C192.119 23.4187 192.205 23.7547 192.392 24.035C192.496 24.1383 192.622 24.2174 192.76 24.2666C192.898 24.3159 193.046 24.3341 193.192 24.32C193.462 24.3263 193.725 24.2386 193.937 24.072L193.94 25.42Z" fill="white"/>
<path d="M22 11H13V20H22V11Z" fill="#F25022"/>
<path d="M22 21H13V30H22V21Z" fill="#00A4EF"/>
<path d="M32 11H23V20H32V11Z" fill="#7FBA00"/>
<path d="M32 21H23V30H32V21Z" fill="#FFB900"/>
</g>
<defs>
<clipPath id="clip0_24_21">
<rect width="215" height="41" fill="white"/>
</clipPath>
</defs>
</svg>
